<svg width="82" height="82" viewBox="0 0 82 82" fill="none" xmlns="http://www.w3.org/2000/svg">
<g filter="url(#filter0_bii_23_698)">
<circle cx="40.5734" cy="40.5733" r="33.3059" transform="rotate(-14.4742 40.5734 40.5733)" fill="white" fill-opacity="0.03"/>
</g>
<path d="M39.5644 50.4892C40.2044 50.4892 40.823 50.3398 41.4204 50.0412C42.0177 49.7425 42.5404 49.2945 42.9884 48.6972C43.4577 48.0998 43.831 47.3532 44.1084 46.4572C44.3857 45.5398 44.5244 44.4838 44.5244 43.2892C44.5244 42.2012 44.3644 41.2412 44.0444 40.4092C43.7457 39.5558 43.319 38.8305 42.7644 38.2332C42.231 37.6358 41.5804 37.1878 40.8124 36.8892C40.0444 36.5692 39.2017 36.4092 38.2844 36.4092C37.9217 36.4092 37.5804 36.4412 37.2604 36.5052C36.9404 36.5692 36.6524 36.6438 36.3964 36.7292C36.0977 36.8145 35.8204 36.9212 35.5644 37.0492L37.3244 28.2172C37.3244 28.2172 37.431 28.2385 37.6444 28.2812C37.8577 28.3238 38.135 28.3665 38.4764 28.4092C38.839 28.4518 39.2337 28.4945 39.6604 28.5372C40.1084 28.5585 40.5564 28.5692 41.0044 28.5692C41.687 28.5692 42.3377 28.5372 42.9564 28.4732C43.5964 28.4092 44.1617 28.3345 44.6524 28.2492C45.2284 28.1638 45.7724 28.0572 46.2844 27.9292L46.2524 28.2492C45.4417 29.1452 44.3217 29.8278 42.8924 30.2972C41.463 30.7452 39.6604 30.9692 37.4844 30.9692L36.5244 35.7692C36.7377 35.7265 36.9724 35.6732 37.2284 35.6092C37.463 35.5665 37.7404 35.5345 38.0604 35.5132C38.4017 35.4705 38.7964 35.4492 39.2444 35.4492C40.5244 35.4492 41.6764 35.6412 42.7004 36.0252C43.7244 36.4092 44.599 36.9425 45.3244 37.6252C46.0497 38.3078 46.6044 39.1398 46.9884 40.1212C47.3724 41.0812 47.5644 42.1372 47.5644 43.2892C47.5644 44.4412 47.3724 45.5078 46.9884 46.4892C46.6044 47.4492 46.071 48.2705 45.3884 48.9532C44.727 49.6358 43.9164 50.1692 42.9564 50.5532C42.0177 50.9372 40.9937 51.1292 39.8844 51.1292C39.0524 51.1292 38.2844 50.9905 37.5804 50.7132C36.8764 50.4358 36.2684 50.0518 35.7564 49.5612C35.2444 49.0705 34.839 48.4945 34.5404 47.8332C34.263 47.1718 34.1244 46.4572 34.1244 45.6892C34.1244 44.1745 34.4337 43.0545 35.0524 42.3292C35.6924 41.5825 36.4497 41.2092 37.3244 41.2092C37.431 41.2092 37.5377 41.2198 37.6444 41.2412C37.7724 41.2625 37.8897 41.2838 37.9964 41.3052C38.103 41.3265 38.199 41.3478 38.2844 41.3692L37.6444 43.9292C36.6844 43.9292 35.959 44.1532 35.4684 44.6012C34.999 45.0278 34.7644 45.6038 34.7644 46.3292C34.7644 46.8412 34.8817 47.3532 35.1164 47.8652C35.3724 48.3558 35.7137 48.8038 36.1404 49.2092C36.567 49.5932 37.0684 49.9025 37.6444 50.1372C38.2417 50.3718 38.8817 50.4892 39.5644 50.4892Z" fill="white"/>
<defs>
<filter id="filter0_bii_23_698" x="-29.7676" y="-29.7676" width="140.682" height="140.682" filterUnits="userSpaceOnUse" color-interpolation-filters="sRGB">
<feFlood flood-opacity="0" result="BackgroundImageFix"/>
<feGaussianBlur in="BackgroundImageFix" stdDeviation="18.5135"/>
<feComposite in2="SourceAlpha" operator="in" result="effect1_backgroundBlur_23_698"/>
<feBlend mode="normal" in="SourceGraphic" in2="effect1_backgroundBlur_23_698" result="shape"/>
<feColorMatrix in="SourceAlpha" type="matrix" values="0 0 0 0 0 0 0 0 0 0 0 0 0 0 0 0 0 0 127 0" result="hardAlpha"/>
<feOffset/>
<feGaussianBlur stdDeviation="21.9419"/>
<feComposite in2="hardAlpha" operator="arithmetic" k2="-1" k3="1"/>
<feColorMatrix type="matrix" values="0 0 0 0 1 0 0 0 0 1 0 0 0 0 1 0 0 0 0.08 0"/>
<feBlend mode="normal" in2="shape" result="effect2_innerShadow_23_698"/>
<feColorMatrix in="SourceAlpha" type="matrix" values="0 0 0 0 0 0 0 0 0 0 0 0 0 0 0 0 0 0 127 0" result="hardAlpha"/>
<feOffset dy="5.48547"/>
<feGaussianBlur stdDeviation="2.74273"/>
<feComposite in2="hardAlpha" operator="arithmetic" k2="-1" k3="1"/>
<feColorMatrix type="matrix" values="0 0 0 0 1 0 0 0 0 1 0 0 0 0 1 0 0 0 0.16 0"/>
<feBlend mode="normal" in2="effect2_innerShadow_23_698" result="effect3_innerShadow_23_698"/>
</filter>
</defs>
</svg>
