<svg width="82" height="82" viewBox="0 0 82 82" fill="none" xmlns="http://www.w3.org/2000/svg">
<g filter="url(#filter0_bii_23_688)">
<circle cx="40.5734" cy="40.5733" r="33.3059" transform="rotate(-14.4742 40.5734 40.5733)" fill="white" fill-opacity="0.03"/>
</g>
<path d="M45.5738 43.4492C46.1284 43.4492 46.6618 43.4172 47.1738 43.3532C47.7071 43.2678 48.1764 43.1718 48.5818 43.0652C49.0511 42.9585 49.4884 42.8198 49.8938 42.6492V42.9692C49.5738 43.2678 49.2111 43.5452 48.8058 43.8012C48.4431 44.0358 47.9951 44.2598 47.4618 44.4732C46.9284 44.6652 46.2991 44.8038 45.5738 44.8892V49.8492L47.4938 50.3292V50.6492H40.9338V50.3292L42.8538 49.8492V44.8892H32.7737C35.0351 42.6278 36.9764 40.1212 38.5978 37.3692C40.2191 34.5958 41.6378 31.5558 42.8538 28.2492H45.5738V43.4492ZM42.8538 30.3292C42.4058 31.4598 41.8831 32.6332 41.2858 33.8492C40.6884 35.0652 40.0378 36.2598 39.3338 37.4332C38.6511 38.6065 37.9364 39.7158 37.1898 40.7612C36.4644 41.7852 35.7391 42.6812 35.0138 43.4492H42.8538V30.3292Z" fill="white"/>
<defs>
<filter id="filter0_bii_23_688" x="-29.7676" y="-29.7675" width="140.682" height="140.682" filterUnits="userSpaceOnUse" color-interpolation-filters="sRGB">
<feFlood flood-opacity="0" result="BackgroundImageFix"/>
<feGaussianBlur in="BackgroundImageFix" stdDeviation="18.5135"/>
<feComposite in2="SourceAlpha" operator="in" result="effect1_backgroundBlur_23_688"/>
<feBlend mode="normal" in="SourceGraphic" in2="effect1_backgroundBlur_23_688" result="shape"/>
<feColorMatrix in="SourceAlpha" type="matrix" values="0 0 0 0 0 0 0 0 0 0 0 0 0 0 0 0 0 0 127 0" result="hardAlpha"/>
<feOffset/>
<feGaussianBlur stdDeviation="21.9419"/>
<feComposite in2="hardAlpha" operator="arithmetic" k2="-1" k3="1"/>
<feColorMatrix type="matrix" values="0 0 0 0 1 0 0 0 0 1 0 0 0 0 1 0 0 0 0.08 0"/>
<feBlend mode="normal" in2="shape" result="effect2_innerShadow_23_688"/>
<feColorMatrix in="SourceAlpha" type="matrix" values="0 0 0 0 0 0 0 0 0 0 0 0 0 0 0 0 0 0 127 0" result="hardAlpha"/>
<feOffset dy="5.48547"/>
<feGaussianBlur stdDeviation="2.74273"/>
<feComposite in2="hardAlpha" operator="arithmetic" k2="-1" k3="1"/>
<feColorMatrix type="matrix" values="0 0 0 0 1 0 0 0 0 1 0 0 0 0 1 0 0 0 0.16 0"/>
<feBlend mode="normal" in2="effect2_innerShadow_23_688" result="effect3_innerShadow_23_688"/>
</filter>
</defs>
</svg>
