<svg width="16" height="16" viewBox="0 0 16 16" fill="none" xmlns="http://www.w3.org/2000/svg">
<path d="M13.3332 2.66669L7.99984 8.00002M13.3332 2.66669V5.66669M13.3332 2.66669H10.3332M12.6665 8.33335V11.2C12.6665 11.9468 12.6665 12.3201 12.5212 12.6053C12.3933 12.8562 12.1894 13.0602 11.9385 13.188C11.6533 13.3334 11.2799 13.3334 10.5332 13.3334H4.79984C4.0531 13.3334 3.67973 13.3334 3.39452 13.188C3.14363 13.0602 2.93966 12.8562 2.81183 12.6053C2.6665 12.3201 2.6665 11.9468 2.6665 11.2V5.46669C2.6665 4.71995 2.6665 4.34658 2.81183 4.06137C2.93966 3.81048 3.14363 3.60651 3.39452 3.47868C3.67973 3.33335 4.0531 3.33335 4.79984 3.33335H7.6665" stroke="#41D8E7" stroke-width="1.5" stroke-linecap="round" stroke-linejoin="round"/>
</svg>
