<svg width="82" height="82" viewBox="0 0 82 82" fill="none" xmlns="http://www.w3.org/2000/svg">
<g filter="url(#filter0_bii_23_706)">
<circle cx="40.5734" cy="40.5733" r="33.3059" transform="rotate(-14.4742 40.5734 40.5733)" fill="white" fill-opacity="0.03"/>
</g>
<path d="M44.9181 43.6092C44.9181 42.4998 44.8008 41.5398 44.5661 40.7292C44.3528 39.9185 44.0648 39.2572 43.7021 38.7452C43.3608 38.2118 42.9555 37.8278 42.4861 37.5932C42.0168 37.3372 41.5475 37.2092 41.0781 37.2092C40.6301 37.2092 40.1821 37.3372 39.7341 37.5932C39.3075 37.8278 38.9128 38.1905 38.5501 38.6812C38.2088 39.1718 37.9315 39.8012 37.7181 40.5692C37.5048 41.3372 37.3981 42.2332 37.3981 43.2572C37.3981 44.6225 37.5048 45.7745 37.7181 46.7132C37.9528 47.6518 38.2515 48.4198 38.6141 49.0172C38.9768 49.5932 39.4035 50.0092 39.8941 50.2652C40.3848 50.5212 40.8861 50.6492 41.3981 50.6492C41.8035 50.6492 42.2088 50.5212 42.6141 50.2652C43.0408 50.0092 43.4248 49.6038 43.7661 49.0492C44.1075 48.4945 44.3848 47.7692 44.5981 46.8732C44.8115 45.9772 44.9181 44.8892 44.9181 43.6092ZM34.3581 39.4492C34.3581 37.4012 34.5608 35.6412 34.9661 34.1692C35.3715 32.6972 35.9048 31.4918 36.5661 30.5532C37.2488 29.5932 38.0168 28.8892 38.8701 28.4412C39.7448 27.9932 40.6408 27.7692 41.5581 27.7692C42.4328 27.7692 43.2115 27.8972 43.8941 28.1532C44.5981 28.3878 45.1848 28.7078 45.6541 29.1132C46.1448 29.5185 46.5181 29.9985 46.7741 30.5532C47.0301 31.0865 47.1581 31.6518 47.1581 32.2492C47.1581 32.4838 47.1368 32.6972 47.0941 32.8892C47.0728 33.0812 47.0408 33.2305 46.9981 33.3372C46.9341 33.4865 46.8808 33.6038 46.8381 33.6892L44.1181 33.0492L44.2781 32.5692C44.3208 32.4198 44.3528 32.2705 44.3741 32.1212C44.4168 31.9505 44.4381 31.7798 44.4381 31.6092C44.4381 30.4785 44.1821 29.6358 43.6701 29.0812C43.1581 28.5265 42.4541 28.2492 41.5581 28.2492C41.0675 28.2492 40.5661 28.4198 40.0541 28.7612C39.5635 29.0812 39.1048 29.6252 38.6781 30.3932C38.2515 31.1612 37.8995 32.1852 37.6221 33.4652C37.3661 34.7238 37.2381 36.2918 37.2381 38.1692V39.7692C37.2381 39.7692 37.3021 39.6092 37.4301 39.2892C37.5795 38.9478 37.8248 38.5745 38.1661 38.1692C38.5075 37.7638 38.9341 37.4012 39.4461 37.0812C39.9795 36.7398 40.6301 36.5692 41.3981 36.5692C42.3155 36.5692 43.1688 36.7398 43.9581 37.0812C44.7688 37.4225 45.4621 37.9025 46.0381 38.5212C46.6355 39.1398 47.1048 39.8865 47.4461 40.7612C47.7875 41.6145 47.9581 42.5638 47.9581 43.6092C47.9581 44.7612 47.7875 45.8065 47.4461 46.7452C47.1048 47.6625 46.6355 48.4518 46.0381 49.1132C45.4621 49.7532 44.7688 50.2545 43.9581 50.6172C43.1688 50.9585 42.3155 51.1292 41.3981 51.1292C40.3528 51.1292 39.3928 50.9372 38.5181 50.5532C37.6648 50.1692 36.9288 49.5398 36.3101 48.6652C35.6915 47.7905 35.2115 46.6598 34.8701 45.2732C34.5288 43.8652 34.3581 42.1372 34.3581 40.0892V39.4492Z" fill="white"/>
<defs>
<filter id="filter0_bii_23_706" x="-29.7676" y="-29.7676" width="140.682" height="140.682" filterUnits="userSpaceOnUse" color-interpolation-filters="sRGB">
<feFlood flood-opacity="0" result="BackgroundImageFix"/>
<feGaussianBlur in="BackgroundImageFix" stdDeviation="18.5135"/>
<feComposite in2="SourceAlpha" operator="in" result="effect1_backgroundBlur_23_706"/>
<feBlend mode="normal" in="SourceGraphic" in2="effect1_backgroundBlur_23_706" result="shape"/>
<feColorMatrix in="SourceAlpha" type="matrix" values="0 0 0 0 0 0 0 0 0 0 0 0 0 0 0 0 0 0 127 0" result="hardAlpha"/>
<feOffset/>
<feGaussianBlur stdDeviation="21.9419"/>
<feComposite in2="hardAlpha" operator="arithmetic" k2="-1" k3="1"/>
<feColorMatrix type="matrix" values="0 0 0 0 1 0 0 0 0 1 0 0 0 0 1 0 0 0 0.08 0"/>
<feBlend mode="normal" in2="shape" result="effect2_innerShadow_23_706"/>
<feColorMatrix in="SourceAlpha" type="matrix" values="0 0 0 0 0 0 0 0 0 0 0 0 0 0 0 0 0 0 127 0" result="hardAlpha"/>
<feOffset dy="5.48547"/>
<feGaussianBlur stdDeviation="2.74273"/>
<feComposite in2="hardAlpha" operator="arithmetic" k2="-1" k3="1"/>
<feColorMatrix type="matrix" values="0 0 0 0 1 0 0 0 0 1 0 0 0 0 1 0 0 0 0.16 0"/>
<feBlend mode="normal" in2="effect2_innerShadow_23_706" result="effect3_innerShadow_23_706"/>
</filter>
</defs>
</svg>
