<svg width="24" height="24" viewBox="0 0 24 24" fill="none" xmlns="http://www.w3.org/2000/svg">
<path d="M12 24C18.6274 24 24 18.6274 24 12C24 5.37258 18.6274 0 12 0C5.37258 0 0 5.37258 0 12C0 18.6274 5.37258 24 12 24Z" fill="#627EEA"/>
<path d="M12.374 2.99835V9.65117L17.9968 12.164L12.374 2.99835Z" fill="white" fill-opacity="0.602"/>
<path d="M12.3742 2.99835L6.75146 12.164L12.3742 9.65117V2.99835Z" fill="white"/>
<path d="M12.374 16.4746V20.9951L18 13.2105L12.374 16.4746Z" fill="white" fill-opacity="0.602"/>
<path d="M12.3742 20.9951V16.4746L6.75146 13.2105L12.3742 20.9951Z" fill="white"/>
<path d="M12.374 15.4281L17.9968 12.164L12.374 9.65118V15.4281Z" fill="white" fill-opacity="0.2"/>
<path d="M6.75146 12.164L12.3742 15.4281V9.65118L6.75146 12.164Z" fill="white" fill-opacity="0.602"/>
</svg>
