<svg width="82" height="82" viewBox="0 0 82 82" fill="none" xmlns="http://www.w3.org/2000/svg">
<g filter="url(#filter0_bii_9_173)">
<circle cx="40.5734" cy="40.5734" r="33.3059" transform="rotate(-14.4742 40.5734 40.5734)" fill="white" fill-opacity="0.03"/>
</g>
<path d="M40.04 28.6C39.08 28.6 38.3333 28.8773 37.8 29.432C37.2667 29.9867 37 30.8293 37 31.96C37 32.28 37.0533 32.6 37.16 32.92C37.2027 33.0907 37.256 33.2507 37.32 33.4L34.6 34.04C34.536 33.9547 34.4827 33.8373 34.44 33.688C34.3333 33.432 34.28 33.0693 34.28 32.6C34.28 32.0027 34.408 31.4373 34.664 30.904C34.92 30.3493 35.2933 29.8693 35.784 29.464C36.2747 29.0587 36.872 28.7387 37.576 28.504C38.3013 28.248 39.1227 28.12 40.04 28.12C41 28.12 41.8533 28.2587 42.6 28.536C43.368 28.792 44.008 29.1547 44.52 29.624C45.032 30.0933 45.4267 30.648 45.704 31.288C45.9813 31.928 46.12 32.632 46.12 33.4C46.12 34.5733 45.864 35.4907 45.352 36.152C44.8613 36.8133 44.3173 37.3253 43.72 37.688C43.016 38.0933 42.216 38.3707 41.32 38.52C42.4293 38.6693 43.4107 39 44.264 39.512C44.6267 39.7253 44.9893 39.992 45.352 40.312C45.7147 40.632 46.0347 41.016 46.312 41.464C46.5893 41.8907 46.8133 42.392 46.984 42.968C47.1547 43.544 47.24 44.1947 47.24 44.92C47.24 45.8373 47.0587 46.7013 46.696 47.512C46.3547 48.3013 45.864 48.9947 45.224 49.592C44.584 50.168 43.8053 50.6267 42.888 50.968C41.992 51.3093 40.9893 51.48 39.88 51.48C38.9627 51.48 38.12 51.3307 37.352 51.032C36.584 50.7333 35.9227 50.328 35.368 49.816C34.8347 49.304 34.408 48.7173 34.088 48.056C33.7893 47.3733 33.64 46.648 33.64 45.88C33.64 44.1947 33.9493 42.9787 34.568 42.232C35.208 41.464 35.9653 41.08 36.84 41.08C36.9467 41.08 37.0533 41.0907 37.16 41.112C37.288 41.1333 37.4053 41.1547 37.512 41.176C37.6187 41.1973 37.7147 41.2187 37.8 41.24L37.16 43.8C35.24 43.8 34.28 44.7067 34.28 46.52C34.28 47.032 34.408 47.5547 34.664 48.088C34.9413 48.6 35.3147 49.0587 35.784 49.464C36.2533 49.8693 36.808 50.2 37.448 50.456C38.088 50.712 38.792 50.84 39.56 50.84C41.0107 50.84 42.1413 50.3813 42.952 49.464C43.784 48.5253 44.2 47.0107 44.2 44.92C44.2 42.7653 43.7947 41.2187 42.984 40.28C42.1733 39.32 41.0853 38.84 39.72 38.84H38.44V38.2H39.72C40.8507 38.2 41.7467 37.8267 42.408 37.08C43.0693 36.312 43.4 35.0853 43.4 33.4C43.4 32.6107 43.304 31.9173 43.112 31.32C42.9413 30.7013 42.696 30.2 42.376 29.816C42.0773 29.4107 41.7253 29.112 41.32 28.92C40.9147 28.7067 40.488 28.6 40.04 28.6Z" fill="white"/>
<defs>
<filter id="filter0_bii_9_173" x="-29.7676" y="-29.7675" width="140.682" height="140.682" filterUnits="userSpaceOnUse" color-interpolation-filters="sRGB">
<feFlood flood-opacity="0" result="BackgroundImageFix"/>
<feGaussianBlur in="BackgroundImageFix" stdDeviation="18.5135"/>
<feComposite in2="SourceAlpha" operator="in" result="effect1_backgroundBlur_9_173"/>
<feBlend mode="normal" in="SourceGraphic" in2="effect1_backgroundBlur_9_173" result="shape"/>
<feColorMatrix in="SourceAlpha" type="matrix" values="0 0 0 0 0 0 0 0 0 0 0 0 0 0 0 0 0 0 127 0" result="hardAlpha"/>
<feOffset/>
<feGaussianBlur stdDeviation="21.9419"/>
<feComposite in2="hardAlpha" operator="arithmetic" k2="-1" k3="1"/>
<feColorMatrix type="matrix" values="0 0 0 0 1 0 0 0 0 1 0 0 0 0 1 0 0 0 0.08 0"/>
<feBlend mode="normal" in2="shape" result="effect2_innerShadow_9_173"/>
<feColorMatrix in="SourceAlpha" type="matrix" values="0 0 0 0 0 0 0 0 0 0 0 0 0 0 0 0 0 0 127 0" result="hardAlpha"/>
<feOffset dy="5.48547"/>
<feGaussianBlur stdDeviation="2.74273"/>
<feComposite in2="hardAlpha" operator="arithmetic" k2="-1" k3="1"/>
<feColorMatrix type="matrix" values="0 0 0 0 1 0 0 0 0 1 0 0 0 0 1 0 0 0 0.16 0"/>
<feBlend mode="normal" in2="effect2_innerShadow_9_173" result="effect3_innerShadow_9_173"/>
</filter>
</defs>
</svg>
