<svg width="24" height="24" viewBox="0 0 24 24" fill="none" xmlns="http://www.w3.org/2000/svg">
<g clip-path="url(#clip0_24_368)">
<path fill-rule="evenodd" clip-rule="evenodd" d="M12 0C18.6279 0 24 5.37212 24 12C24 18.6279 18.6279 24 12 24C5.37212 24 0 18.6279 0 12C0 5.37212 5.37212 0 12 0Z" fill="#F0B90B"/>
<g clip-path="url(#clip1_24_368)">
<path d="M8.89279 10.7235L12.0005 7.61615L15.1091 10.7248L16.9173 8.91685L12.0005 4L7.08487 8.91529L8.89279 10.7232M4 12.0005L5.80823 10.1919L7.61615 12.0005L5.80792 13.8078L4 12.0005ZM8.89279 13.2771L12.0005 16.3842L15.1091 13.2755L16.9183 15.0825L12.0005 20.0009L7.08487 15.085L7.08237 15.0822L8.89279 13.2768M16.3842 12.0005L18.1921 10.1926L20.0009 12.0005L18.193 13.8084L16.3842 12.0005Z" fill="white"/>
<path d="M13.8338 12.0004L12.0006 10.1643L10.6443 11.52L10.488 11.6763L10.1671 11.9972L10.1646 11.9997L10.1671 12.0022L12.0006 13.8355L13.8351 12.001H13.8335" fill="white"/>
</g>
</g>
<defs>
<clipPath id="clip0_24_368">
<rect width="24" height="24" fill="white"/>
</clipPath>
<clipPath id="clip1_24_368">
<rect width="16" height="16" fill="white" transform="translate(4 4)"/>
</clipPath>
</defs>
</svg>
