<svg width="168" height="40" viewBox="0 0 168 40" fill="none" xmlns="http://www.w3.org/2000/svg">
<g clip-path="url(#clip0_23_36)">
<mask id="mask0_23_36" style="mask-type:luminance" maskUnits="userSpaceOnUse" x="0" y="0" width="168" height="40">
<path d="M167.805 0H0V40H167.805V0Z" fill="white"/>
</mask>
<g mask="url(#mask0_23_36)">
<path fill-rule="evenodd" clip-rule="evenodd" d="M34.5937 6.14097L34.8042 7.41346C34.9701 8.59722 35.0469 9.79177 35.0341 10.9871C35.0327 13.6285 34.7141 16.2601 34.085 18.8255C33.2343 22.3108 31.7525 25.6108 29.7131 28.5622C27.3564 31.9518 23.9488 35.2857 18.9818 37.9645L18.3741 38.292L17.7665 37.9645C12.7995 35.2857 9.39332 31.9518 7.03523 28.5622C4.9958 25.6108 3.51405 22.3108 2.66328 18.8255C2.03435 16.2606 1.7157 13.6294 1.71419 10.9885C1.70135 9.79316 1.77822 8.59861 1.94415 7.41485L2.15459 6.14236C2.17255 6.03859 2.1698 5.93228 2.1465 5.82957C2.1232 5.72687 2.0798 5.62979 2.0188 5.54393C1.95781 5.45807 1.88043 5.38513 1.79112 5.32932C1.70181 5.2735 1.60234 5.23591 1.49844 5.21872C1.39454 5.20152 1.28827 5.20506 1.18574 5.22913C1.08321 5.25319 0.986463 5.29732 0.901064 5.35895C0.815665 5.42058 0.743307 5.4985 0.688159 5.58822C0.633011 5.67795 0.596163 5.7777 0.57974 5.88173L0.369296 7.15422C0.188284 8.42406 0.103957 9.70581 0.117041 10.9885C0.118044 13.7595 0.452135 16.5203 1.11212 19.2116C2.01052 22.8868 3.57448 26.3663 5.72657 29.4779C8.21428 33.0585 11.8225 36.5791 17.0153 39.3735L18.002 39.9045C18.1183 39.9674 18.2483 40.0003 18.3804 40.0003C18.5125 40.0003 18.6426 39.9674 18.7588 39.9045L19.7441 39.3735C24.9314 36.5777 28.541 33.0585 31.0329 29.4779C33.1839 26.3665 34.7469 22.8875 35.6445 19.213C36.3045 16.5217 36.6386 13.7609 36.6396 10.9899C36.6527 9.70721 36.5683 8.42546 36.3874 7.15562L36.1769 5.88313C36.1605 5.77909 36.1236 5.67934 36.0685 5.58962C36.0134 5.49989 35.941 5.42197 35.8556 5.36034C35.7702 5.29871 35.6734 5.25459 35.5709 5.23052C35.4684 5.20645 35.3621 5.20292 35.2582 5.22011C35.1543 5.23731 35.0548 5.27489 34.9655 5.33071C34.8762 5.38652 34.7988 5.45946 34.7379 5.54532C34.6769 5.63118 34.6335 5.72826 34.6102 5.83097C34.5869 5.93368 34.5841 6.03998 34.6021 6.14376L34.5937 6.14097Z" fill="white"/>
<path fill-rule="evenodd" clip-rule="evenodd" d="M6.51558 5.274L18.3761 1.65028L30.5014 5.35205C30.7044 5.41274 30.9232 5.39054 31.1099 5.29031C31.2965 5.19008 31.4359 5.01999 31.4974 4.81725C31.559 4.61451 31.5377 4.39565 31.4383 4.20855C31.3389 4.02145 31.1694 3.88136 30.9669 3.81894L18.6088 0.0460917C18.4572 -0.000389956 18.295 -0.000389956 18.1433 0.0460917L6.04869 3.7381C5.94761 3.76832 5.85351 3.8182 5.77176 3.88488C5.69002 3.95157 5.62226 4.03374 5.57235 4.12668C5.52245 4.21962 5.4914 4.32151 5.48097 4.42648C5.47055 4.53146 5.48096 4.63746 5.51161 4.7384C5.54226 4.83935 5.59254 4.93324 5.65957 5.0147C5.7266 5.09616 5.80906 5.16357 5.90222 5.21308C5.99537 5.26258 6.09739 5.2932 6.2024 5.30318C6.30742 5.31315 6.41338 5.30229 6.51419 5.27121L6.51558 5.274Z" fill="white"/>
<path fill-rule="evenodd" clip-rule="evenodd" d="M0.658965 6.37495L17.6629 39.5629C17.7292 39.6926 17.8298 39.8017 17.9537 39.8782C18.0776 39.9548 18.2201 39.996 18.3658 39.9973C18.5114 39.9986 18.6546 39.96 18.7799 39.8856C18.9051 39.8112 19.0076 39.7039 19.0762 39.5754L29.4458 20.1814L29.4611 20.1508L36.0983 6.35265C36.1882 6.16223 36.1994 5.944 36.1293 5.7454C36.0593 5.5468 35.9137 5.38387 35.7241 5.29205C35.5346 5.20023 35.3165 5.18692 35.1172 5.25503C34.9179 5.32314 34.7536 5.46716 34.6599 5.65577L28.0339 19.4427L18.3974 37.4778L2.07921 5.64462C2.03218 5.55011 1.96687 5.46586 1.88704 5.39677C1.80722 5.32768 1.71448 5.27511 1.61419 5.24212C1.51391 5.20912 1.40808 5.19636 1.30282 5.20456C1.19757 5.21277 1.09499 5.24178 1.00103 5.28991C0.907066 5.33804 0.823591 5.40434 0.755437 5.48497C0.687284 5.56559 0.635808 5.65894 0.603992 5.7596C0.572176 5.86027 0.560652 5.96624 0.570088 6.07139C0.579525 6.17654 0.609734 6.27877 0.658965 6.37216V6.37495Z" fill="white"/>
<path fill-rule="evenodd" clip-rule="evenodd" d="M8.7984 21.1549H27.7072C27.9188 21.1549 28.1217 21.0709 28.2714 20.9212C28.421 20.7716 28.5051 20.5687 28.5051 20.357C28.5051 20.1454 28.421 19.9425 28.2714 19.7928C28.1217 19.6432 27.9188 19.5591 27.7072 19.5591H8.7984C8.58678 19.5591 8.38383 19.6432 8.23419 19.7928C8.08456 19.9425 8.00049 20.1454 8.00049 20.357C8.00049 20.5687 8.08456 20.7716 8.23419 20.9212C8.38383 21.0709 8.58678 21.1549 8.7984 21.1549ZM61.5399 14.2699H49.2389C49.0263 14.271 48.8227 14.356 48.6724 14.5063C48.5221 14.6566 48.4372 14.8601 48.4361 15.0727V24.9459C48.4375 25.1583 48.5226 25.3617 48.6728 25.5119C48.823 25.6622 49.0264 25.7472 49.2389 25.7487H61.5399V27.4211H49.2389C48.9143 27.4226 48.5927 27.3598 48.2925 27.2363C47.9924 27.1127 47.7197 26.931 47.4902 26.7015C47.2607 26.472 47.079 26.1993 46.9554 25.8992C46.8319 25.599 46.7691 25.2774 46.7706 24.9529V15.0797C46.7691 14.7551 46.8319 14.4335 46.9554 14.1334C47.079 13.8332 47.2607 13.5605 47.4902 13.331C47.7197 13.1015 47.9924 12.9198 48.2925 12.7963C48.5927 12.6727 48.9143 12.6099 49.2389 12.6114H61.5399V14.2699ZM84.6382 12.603V14.2755H72.7915V19.1633H82.3134V20.8497H72.7901V25.7459H84.6368V27.4184H71.1176V12.603H84.6382Z" fill="white"/>
<path d="M109.033 15.0923V19.4324C109.035 19.7569 108.972 20.0784 108.848 20.3785C108.724 20.6785 108.543 20.9512 108.313 21.1806C108.084 21.4101 107.811 21.5918 107.511 21.7154C107.211 21.839 106.889 21.902 106.565 21.9007H104.303L108.951 27.4129H106.75L102.122 21.9007H96.6862C96.4174 21.887 96.1494 21.8596 95.8834 21.8185V27.4129H94.2109V12.624H106.552C106.877 12.6227 107.198 12.6857 107.498 12.8093C107.799 12.9329 108.071 13.1146 108.301 13.3441C108.53 13.5736 108.712 13.8462 108.835 14.1462C108.959 14.4463 109.022 14.7678 109.021 15.0923H109.033ZM96.6918 20.2143H106.565C106.668 20.2156 106.77 20.1963 106.866 20.1574C106.961 20.1186 107.048 20.0611 107.121 19.9882C107.194 19.9153 107.251 19.8286 107.29 19.7332C107.329 19.6377 107.348 19.5354 107.347 19.4324V15.0923C107.348 14.9878 107.329 14.8839 107.291 14.7868C107.252 14.6897 107.194 14.6012 107.121 14.5265C107.05 14.45 106.964 14.3893 106.868 14.3485C106.772 14.3076 106.668 14.2876 106.564 14.2895H96.6904C96.4778 14.2906 96.2743 14.3756 96.1239 14.5259C95.9736 14.6762 95.8887 14.8798 95.8876 15.0923V19.4324C95.8854 19.5368 95.9054 19.6404 95.9463 19.7365C95.9871 19.8326 96.0479 19.919 96.1245 19.9899C96.1994 20.0631 96.2881 20.1207 96.3855 20.1592C96.4829 20.1978 96.587 20.2165 96.6918 20.2143Z" fill="white"/>
<path fill-rule="evenodd" clip-rule="evenodd" d="M117.879 12.603H132.683V14.2755H126.133V27.4197H124.46V14.2755H117.879V12.603ZM141.656 27.4128V12.603H143.329V27.4128H141.656ZM165.557 12.603H167.697L161.506 20.0079L167.717 27.4128H165.557L160.045 20.8511H155.273V27.4128H153.589V12.603H155.276V19.1633H160.048L165.557 12.603Z" fill="white"/>
</g>
</g>
<defs>
<clipPath id="clip0_23_36">
<rect width="168" height="40" fill="white"/>
</clipPath>
</defs>
</svg>
