<svg width="582" height="130" viewBox="0 0 582 130" fill="none" xmlns="http://www.w3.org/2000/svg">
<path d="M161.41 64.51L144.1 129.04H17.36L12.49 110.8L9.18001 98.38H85.8V107.88L101.63 98.74L117.45 89.61L101.63 80.46L85.8 71.33V82.55H4.8L4.28 80.64L1 68.64C0.68 67.43 0.34 66.22 0 65L17.38 0H144.1L154.95 40.34H80.85V29.11L65.02 38.24L49.2 47.39L65.02 56.52L80.85 65.66V56.16H159.15L159.2 56.35L161.41 64.51Z" fill="url(#paint0_linear_906_658)"/>
<path d="M181.781 99.5299L182.231 87.0199H216.441C217.292 87.1056 218.145 86.8702 218.831 86.3599C219.38 85.6625 219.648 84.7848 219.581 83.8999L219.901 74.9899C219.91 74.6547 219.883 74.3195 219.821 73.9899C219.611 72.8499 218.691 72.2799 217.051 72.2799H191.751C189.643 72.425 187.548 71.8388 185.821 70.6199C184.409 69.4308 183.49 67.7592 183.241 65.9299C183.098 65.0238 183.031 64.1073 183.041 63.1899L183.621 46.5999C183.771 42.8099 184.671 39.9999 186.301 38.1699C187.931 36.3399 190.841 35.4199 195.011 35.4199H234.901L234.501 47.6399H200.501C200.13 47.5956 199.753 47.6325 199.398 47.7482C199.042 47.8639 198.716 48.0556 198.441 48.3099C198.001 49.0196 197.785 49.8455 197.821 50.6799L197.501 59.1099C197.487 59.3297 197.487 59.5501 197.501 59.7699C197.503 59.9609 197.52 60.1515 197.551 60.3399C197.721 61.3399 198.501 61.7599 199.891 61.7599H225.561C228.228 61.7599 230.228 62.3299 231.561 63.4699C232.971 64.6836 233.891 66.3681 234.151 68.2099C234.295 69.0855 234.355 69.9729 234.331 70.8599L233.731 88.3899C233.571 92.1799 232.681 94.9899 231.041 96.8199C229.401 98.6499 226.541 99.5699 222.431 99.5699L181.781 99.5299Z" fill="#F8F9FA"/>
<path d="M290.472 99.5293L281.672 66.2693L269.342 99.5293H252.852L241.082 51.5293H255.672L262.952 85.8393L274.952 51.5293H290.582L299.102 85.7893L309.752 51.5793H323.752L307.192 99.5793L290.472 99.5293Z" fill="#F8F9FA"/>
<path d="M328.75 99.53L330.43 51.53H343.7L342.01 99.53H328.75ZM330.66 45.9L331.15 31.5H344.52L344.02 45.9H330.66Z" fill="#F8F9FA"/>
<path d="M352.441 99.5291L354.441 42.5291C354.611 38.5291 355.441 35.6391 356.971 33.9991C358.501 32.3591 360.781 31.5391 363.881 31.5391H380.361L380.011 41.8691H370.011C369.681 41.8289 369.346 41.8654 369.031 41.9756C368.717 42.0858 368.433 42.2668 368.2 42.5046C367.967 42.7425 367.791 43.0307 367.688 43.3471C367.584 43.6635 367.554 43.9994 367.601 44.329L367.371 51.6191H379.211L378.891 62.0391H367.101L365.751 99.5591L352.441 99.5291Z" fill="#F8F9FA"/>
<path d="M394.1 99.5287C391.45 99.5287 389.45 99.0788 388.1 98.1588C387.41 97.6494 386.831 97.0044 386.399 96.2632C385.968 95.522 385.692 94.7003 385.59 93.8488C385.416 92.6236 385.356 91.385 385.41 90.1487L387.25 38.2188H400.52L400.1 51.5787H411.66L411.3 62.0388H399.74L398.85 86.5787C398.822 86.9883 398.822 87.3992 398.85 87.8088C399.01 88.6988 399.78 89.1387 401.17 89.1387H409.89L409.55 99.5588L394.1 99.5287Z" fill="#F8F9FA"/>
<path d="M473.532 42.2694C473.39 41.1405 473.024 40.051 472.458 39.0641C471.892 38.0771 471.135 37.2122 470.232 36.5194C468.522 35.2994 465.962 34.6895 462.602 34.6895H430.672C426.382 34.6895 423.302 35.6895 421.542 37.6895C419.782 39.6895 418.842 42.6194 418.682 46.5594L417.242 88.3294C417.14 89.8085 417.204 91.2944 417.432 92.7594C417.579 93.8792 417.95 94.9578 418.524 95.9305C419.098 96.9031 419.863 97.7498 420.772 98.4194C422.502 99.6294 425.082 100.249 428.432 100.249H460.372C464.592 100.249 467.652 99.2495 469.442 97.2495C471.232 95.2495 472.202 92.3195 472.352 88.3795L473.802 46.5594C473.802 45.7894 473.802 45.0594 473.752 44.3594C473.722 43.6589 473.649 42.9609 473.532 42.2694ZM457.852 51.5594L456.662 83.4894C456.701 84.217 456.461 84.932 455.992 85.4894C455.712 85.7494 454.992 86.0695 453.372 86.0695H435.462C433.542 86.0695 433.162 85.3094 433.052 84.6494C433.023 84.2867 433.023 83.9222 433.052 83.5594L434.242 51.6295C434.17 50.7547 434.376 49.8794 434.832 49.1295C435.411 48.7129 436.123 48.5242 436.832 48.5994H454.732C457.182 48.5994 457.632 49.5194 457.732 50.2094C457.765 50.4012 457.785 50.595 457.792 50.7894C457.852 51.0394 457.862 51.2694 457.852 51.5594Z" fill="url(#paint1_linear_906_658)"/>
<path d="M479.461 48.6794H495.001L493.221 99.5094L493.191 100.229H508.981L510.791 48.6794H526.431L526.911 34.6895H479.941L479.461 48.6794Z" fill="url(#paint2_linear_906_658)"/>
<path d="M548.102 51.7994C548.172 50.1294 548.492 49.5594 548.682 49.3594C548.872 49.1594 549.342 48.8694 551.132 48.8694H580.802L581.242 34.6895H544.382C540.152 34.6895 537.102 35.6895 535.302 37.6895C533.502 39.6895 532.552 42.6295 532.392 46.5695L530.952 88.3394C530.896 89.1118 530.896 89.8871 530.952 90.6594C531.003 91.3302 531.09 91.9978 531.212 92.6594C531.349 93.7899 531.712 94.8813 532.279 95.869C532.846 96.8567 533.605 97.7205 534.512 98.4094C536.212 99.6294 538.772 100.249 542.132 100.249H579.132L579.642 85.8795H549.742C548.995 85.9526 548.243 85.8248 547.562 85.5094C547.389 85.3894 547.244 85.2335 547.137 85.0522C547.03 84.871 546.963 84.6688 546.942 84.4594C546.904 84.2549 546.883 84.0475 546.882 83.8394C546.882 83.6394 546.882 83.3794 546.882 83.0894L548.102 51.7994Z" fill="url(#paint3_linear_906_658)"/>
<defs>
<linearGradient id="paint0_linear_906_658" x1="-56.81" y1="160.69" x2="257.89" y2="-59.35" gradientUnits="userSpaceOnUse">
<stop stop-color="#86C770"/>
<stop offset="0.07" stop-color="#7FC67B"/>
<stop offset="0.19" stop-color="#6CC298"/>
<stop offset="0.35" stop-color="#4CBCC7"/>
<stop offset="0.45" stop-color="#35B7EA"/>
<stop offset="0.53" stop-color="#389ED8"/>
<stop offset="0.61" stop-color="#3B89CA"/>
<stop offset="0.71" stop-color="#3D7ABF"/>
<stop offset="0.82" stop-color="#3E72B9"/>
<stop offset="1" stop-color="#3E6FB7"/>
</linearGradient>
<linearGradient id="paint1_linear_906_658" x1="369.882" y1="103.579" x2="669.632" y2="-39.6205" gradientUnits="userSpaceOnUse">
<stop stop-color="#86C770"/>
<stop offset="0.07" stop-color="#7FC67B"/>
<stop offset="0.19" stop-color="#6CC298"/>
<stop offset="0.35" stop-color="#4CBCC7"/>
<stop offset="0.45" stop-color="#35B7EA"/>
<stop offset="0.53" stop-color="#389ED8"/>
<stop offset="0.61" stop-color="#3B89CA"/>
<stop offset="0.71" stop-color="#3D7ABF"/>
<stop offset="0.82" stop-color="#3E72B9"/>
<stop offset="1" stop-color="#3E6FB7"/>
</linearGradient>
<linearGradient id="paint2_linear_906_658" x1="378.971" y1="122.629" x2="678.731" y2="-20.5707" gradientUnits="userSpaceOnUse">
<stop stop-color="#86C770"/>
<stop offset="0.07" stop-color="#7FC67B"/>
<stop offset="0.19" stop-color="#6CC298"/>
<stop offset="0.35" stop-color="#4CBCC7"/>
<stop offset="0.45" stop-color="#35B7EA"/>
<stop offset="0.53" stop-color="#389ED8"/>
<stop offset="0.61" stop-color="#3B89CA"/>
<stop offset="0.71" stop-color="#3D7ABF"/>
<stop offset="0.82" stop-color="#3E72B9"/>
<stop offset="1" stop-color="#3E6FB7"/>
</linearGradient>
<linearGradient id="paint3_linear_906_658" x1="391.102" y1="147.999" x2="690.852" y2="4.79927" gradientUnits="userSpaceOnUse">
<stop stop-color="#86C770"/>
<stop offset="0.07" stop-color="#7FC67B"/>
<stop offset="0.19" stop-color="#6CC298"/>
<stop offset="0.35" stop-color="#4CBCC7"/>
<stop offset="0.45" stop-color="#35B7EA"/>
<stop offset="0.53" stop-color="#389ED8"/>
<stop offset="0.61" stop-color="#3B89CA"/>
<stop offset="0.71" stop-color="#3D7ABF"/>
<stop offset="0.82" stop-color="#3E72B9"/>
<stop offset="1" stop-color="#3E6FB7"/>
</linearGradient>
</defs>
</svg>
