<svg width="30" height="30" viewBox="0 0 30 30" fill="none" xmlns="http://www.w3.org/2000/svg">
<circle cx="15" cy="15" r="15" fill="#32B7EA"/>
<path d="M11.2305 10.2227C13.567 10.2227 15.4609 12.1298 15.4609 14.4822C15.4609 16.8346 13.5668 18.7416 11.2305 18.7416C8.89421 18.7416 7 16.8346 7 14.4822C7 12.1298 8.89406 10.2227 11.2305 10.2227ZM17.9864 10.4722C19.1546 10.4722 20.1016 12.2673 20.1016 14.4822H20.1018C20.1018 16.6965 19.1547 18.4923 17.9865 18.4923C16.8183 18.4923 15.8712 16.6965 15.8712 14.4822C15.8712 12.2679 16.8181 10.4722 17.9864 10.4722ZM21.2561 10.8898C21.6668 10.8898 22 12.4982 22 14.4822C22 16.4657 21.667 18.0746 21.2561 18.0746C20.8451 18.0746 20.5123 16.4661 20.5123 14.4822C20.5123 12.4983 20.8453 10.8898 21.2561 10.8898Z" fill="white"/>
</svg>
