<svg width="30" height="30" viewBox="0 0 30 30" fill="none" xmlns="http://www.w3.org/2000/svg">
<path d="M15 30C23.2843 30 30 23.2843 30 15C30 6.71573 23.2843 0 15 0C6.71573 0 0 6.71573 0 15C0 23.2843 6.71573 30 15 30Z" fill="#32B7EA"/>
<path fill-rule="evenodd" clip-rule="evenodd" d="M6.7888 14.8419C11.1616 12.9368 14.0775 11.6808 15.5365 11.0739C19.7021 9.3413 20.5677 9.04032 21.1319 9.03038C21.256 9.02819 21.5334 9.05895 21.7131 9.20477C21.8649 9.32791 21.9066 9.49425 21.9266 9.61099C21.9466 9.72774 21.9715 9.99369 21.9517 10.2015C21.726 12.5733 20.7492 18.3292 20.2523 20.9857C20.042 22.1098 19.628 22.4867 19.2272 22.5236C18.3561 22.6037 17.6946 21.9479 16.8509 21.3949C15.5308 20.5295 14.7849 19.9907 13.5034 19.1463C12.0225 18.1703 12.9825 17.6339 13.8265 16.7573C14.0474 16.5279 17.8854 13.037 17.9597 12.7203C17.969 12.6807 17.9776 12.533 17.8899 12.4551C17.8022 12.3771 17.6727 12.4038 17.5793 12.425C17.4469 12.455 15.3379 13.849 11.2522 16.607C10.6536 17.018 10.1114 17.2183 9.62554 17.2078C9.08996 17.1962 8.05973 16.905 7.29385 16.656C6.35448 16.3507 5.60788 16.1892 5.67289 15.6707C5.70675 15.4005 6.07872 15.1243 6.7888 14.8419Z" fill="white"/>
</svg>
